<svg viewBox="30 10 50 10">
  <g>
    <polygon class="svg-rating-star-active"  points="4.732,0 6.194,2.963 9.463,3.438 7.098,5.745 7.656,9 4.732,7.463 1.807,9 2.366,5.745 0,3.438 3.269,2.963 "/>
    <polygon class="svg-rating-star-active"  points="14.732,0 16.194,2.963 19.463,3.438 17.098,5.745 17.656,9 14.732,7.463 11.807,9 12.366,5.745 10,3.438 13.269,2.963 "/>
    <polygon class="svg-rating-star-active"  points="24.732,0 26.194,2.963 29.463,3.438 27.098,5.745 27.656,9 24.732,7.463 21.807,9 22.365,5.745 20,3.438 23.27,2.963 "/>
    <polygon class="svg-rating-star-active"  points="34.732,0 36.194,2.963 39.463,3.438 37.098,5.745 37.656,9 34.732,7.463 31.807,9 32.365,5.745 30,3.438 33.27,2.963 "/>
    <polygon class="svg-rating-star-active"  points="44.732,0 46.194,2.963 49.463,3.438 47.098,5.745 47.656,9 44.732,7.463 41.807,9 42.365,5.745 40,3.438 43.27,2.963 "/>

    <polygon class="svg-rating-star-inactive" points="54.732,0 56.194,2.963 59.463,3.438 57.098,5.745 57.656,9 54.732,7.463 51.807,9 52.365,5.745 50,3.438 53.27,2.963 "/>
    <polygon class="svg-rating-star-inactive" points="64.732,0 66.194,2.963 69.463,3.438 67.098,5.745 67.656,9 64.732,7.463 61.807,9 62.365,5.745 60,3.438 63.27,2.963 "/>
    <polygon class="svg-rating-star-inactive" points="74.732,0 76.194,2.963 79.463,3.438 77.098,5.745 77.656,9 74.732,7.463 71.807,9 72.365,5.745 70,3.438 73.27,2.963 "/>
    <polygon class="svg-rating-star-inactive" points="84.732,0 86.194,2.963 89.463,3.438 87.098,5.745 87.656,9 84.732,7.463 81.807,9 82.365,5.745 80,3.438 83.27,2.963 "/>
    <polygon class="svg-rating-star-inactive" points="94.732,0 96.194,2.963 99.463,3.438 97.098,5.745 97.656,9 94.732,7.462 91.807,9 92.365,5.745 90,3.438 93.27,2.963 "/>

    <polygon class="svg-rating-star-active"  points="4.732,10 6.194,12.963 9.463,13.438 7.098,15.745 7.656,19 4.732,17.463 1.807,19 2.366,15.745 0,13.438 3.269,12.963 "/>
    <polygon class="svg-rating-star-active"  points="14.732,10 16.194,12.963 19.463,13.438 17.098,15.745 17.656,19 14.732,17.463 11.807,19 12.366,15.745 10,13.438 13.269,12.963 "/>
    <polygon class="svg-rating-star-active"  points="24.732,10 26.194,12.963 29.463,13.438 27.098,15.745 27.656,19 24.732,17.463 21.807,19 22.365,15.745 20,13.438 23.27,12.963 "/>
    <polygon class="svg-rating-star-active"  points="34.732,10 36.194,12.963 39.463,13.438 37.098,15.745 37.656,19 34.732,17.463 31.807,19 32.365,15.745 30,13.438 33.27,12.963 "/>
    <polygon class="svg-rating-star-active"  points="44.732,10 44.732,17.463 41.807,19 42.365,15.745 40,13.438 43.27,12.963 "/>

    <polygon class="svg-rating-star-inactive" points="44.732,10 46.195,12.963 49.464,13.438 47.099,15.745 47.657,19 44.732,17.463 "/>
    <polygon class="svg-rating-star-inactive" points="54.732,10 56.194,12.963 59.463,13.438 57.098,15.745 57.656,19 54.732,17.463 51.807,19 52.365,15.745 50,13.438 53.27,12.963 "/>
    <polygon class="svg-rating-star-inactive" points="64.732,10 66.194,12.963 69.463,13.438 67.098,15.745 67.656,19 64.732,17.463 61.807,19 62.365,15.745 60,13.438 63.27,12.963 "/>
    <polygon class="svg-rating-star-inactive" points="74.732,10 76.194,12.963 79.463,13.438 77.098,15.745 77.656,19 74.732,17.463 71.807,19 72.365,15.745 70,13.438 73.27,12.963 "/>
    <polygon class="svg-rating-star-inactive" points="84.732,10 86.194,12.963 89.463,13.438 87.098,15.745 87.656,19 84.732,17.463 81.807,19 82.365,15.745 80,13.438 83.27,12.963 "/>
  </g>
</svg>

